<svg width="70" height="76" viewBox="0 0 70 76" fill="none" xmlns="http://www.w3.org/2000/svg">
<path d="M0 10C0 4.47715 4.47715 0 10 0H60C65.5229 0 70 4.47715 70 10V66C70 71.5229 65.5229 76 60 76H10C4.47715 76 0 71.5229 0 66V10Z" fill="#E74040"/>
<g clip-path="url(#clip0_2689_3099)">
<g clip-path="url(#clip1_2689_3099)">
<g clip-path="url(#clip2_2689_3099)">
<path d="M51 43.8742C51 42.6536 50.2139 41.6227 49.125 41.2344V31.5223L51 30.7492L35 24.3296L19 30.7492L35 37.1689L47.25 32.2752V41.2344C46.1611 41.6227 45.375 42.6536 45.375 43.8742C45.375 44.9917 46.035 45.951 46.9813 46.4043L45.4236 51.0776L47.2015 51.6708L48.1875 48.7128L49.1735 51.6708L50.9514 51.0776L49.3937 46.4043C50.34 45.951 51 44.9918 51 43.8742Z" fill="white"/>
</g>
</g>
<g clip-path="url(#clip3_2689_3099)">
<g clip-path="url(#clip4_2689_3099)">
<path d="M35 39.1893L26.5625 35.8013V38.249C26.5625 40.9215 30.1898 42.9365 35 42.9365C39.8102 42.9365 43.4375 40.9215 43.4375 38.249V35.8013L35 39.1893Z" fill="white"/>
</g>
</g>
</g>
<defs>
<clipPath id="clip0_2689_3099">
<rect width="32" height="32" fill="white" transform="translate(19 22)"/>
</clipPath>
<clipPath id="clip1_2689_3099">
<rect width="32" height="27.3413" fill="white" transform="translate(19 24.3296)"/>
</clipPath>
<clipPath id="clip2_2689_3099">
<rect width="32" height="27.3413" fill="white" transform="translate(19 24.3296)"/>
</clipPath>
<clipPath id="clip3_2689_3099">
<rect width="16.875" height="7.13525" fill="white" transform="translate(26.5625 35.8013)"/>
</clipPath>
<clipPath id="clip4_2689_3099">
<rect width="16.875" height="7.13525" fill="white" transform="translate(26.5625 35.8013)"/>
</clipPath>
</defs>
</svg>
