<svg width="70" height="76" viewBox="0 0 70 76" fill="none" xmlns="http://www.w3.org/2000/svg">
<path d="M0 10C0 4.47715 4.47715 0 10 0H60C65.5229 0 70 4.47715 70 10V66C70 71.5229 65.5229 76 60 76H10C4.47715 76 0 71.5229 0 66V10Z" fill="#E74040"/>
<g clip-path="url(#clip0_2689_3078)">
<g clip-path="url(#clip1_2689_3078)">
<path d="M20.7144 41.9999C20.7144 42.3155 20.9702 42.5714 21.2858 42.5714H48.7144C49.0299 42.5714 49.2858 42.3155 49.2858 41.9999V24.2856H20.7144V41.9999Z" fill="white"/>
<path d="M50.4286 22H19.5714C19.2559 22 19 22.2559 19 22.5714C19 22.887 19.2559 23.1429 19.5714 23.1429H50.4286C50.7441 23.1429 51 22.887 51 22.5714C51 22.2559 50.7441 22 50.4286 22Z" fill="white"/>
<path d="M39.5715 51.7144H35.5715V44.8572H36.1429C36.4585 44.8572 36.7144 44.6014 36.7144 44.2858V43.7144H33.2858V44.2858C33.2858 44.6014 33.5416 44.8572 33.8572 44.8572H34.4286V51.7144H30.4286C29.4819 51.7144 28.7144 52.4819 28.7144 53.4286V54.0001H41.2858V53.4286C41.2858 52.4819 40.5182 51.7144 39.5715 51.7144Z" fill="white"/>
</g>
</g>
<defs>
<clipPath id="clip0_2689_3078">
<rect width="32" height="32" fill="white" transform="translate(19 22)"/>
</clipPath>
<clipPath id="clip1_2689_3078">
<rect width="32" height="32" fill="white" transform="translate(19 22)"/>
</clipPath>
</defs>
</svg>
